<svg version="1.1" id="svg4971" xmlns="http://www.w3.org/2000/svg" xmlns:xlink="http://www.w3.org/1999/xlink" x="0" y="0" viewBox="0 0 996.6 1000" style="enable-background:new 0 0 996.6 1000" xml:space="preserve"><style>.st1{fill:#fff}.st3{fill:#6a2a08}.st4{fill:#733c19}</style><g id="g5526" transform="matrix(-.35278 0 0 .35278 137.933 161.685)"><path id="path5528" d="M391 959.1c0-783-632.5-1417.4-1412.6-1417.4-780 0-1412.3 634.4-1412.3 1417.4 0 782.7 632.3 1417.3 1412.3 1417.3C-241.5 2376.3 391 1741.8 391 959.1" style="fill:#ee2722"/></g><g id="g5530" transform="matrix(-.35278 0 0 .35278 138.83 161.685)"><path id="path5532" class="st1" d="M307.7 959.1c0 734.1-595.1 1331.3-1326.7 1331.3-731.5 0-1326.7-597.1-1326.7-1331.3 0-734.2 595.2-1331.2 1326.7-1331.2 731.6 0 1326.7 597 1326.7 1331.2m-59.6 0c0-701.4-568.4-1271.8-1267.2-1271.8-698.9 0-1267.1 570.4-1267.1 1271.8 0 701.3 568.2 1271.7 1267.1 1271.7 698.8 0 1267.2-570.4 1267.2-1271.7"/></g><g id="g5534" transform="matrix(-.35278 0 0 .35278 145.128 160.958)"><path id="path5536" d="M-276.7 891.6c89.9-102.1 139.5-236.7 139.5-379.1 0-298.8-220.4-542-491.1-542-143.8 0-278.4 69-371.8 187.6-93.5-118.7-228.6-187.6-372.9-187.6-270.8 0-491.3 243.1-491.3 542 0 142.2 49.7 276.8 139.6 379.1l723.4 800.2 724.6-800.2z" style="fill:#d8960a"/></g><g id="g5538" transform="matrix(-.35278 0 0 .35278 156.592 151.825)"><path id="path5540" class="st3" d="M-1340.5 44.1c155.9 0 293.1 89.8 372.9 224.1 79.7-134.3 215.8-224.1 371.8-224.1 244.9 0 443.3 221.4 443.3 494.2 0 135.4-48.9 258.2-127.6 347.6l-688.7 760.5-687.6-760.5c-78.6-89.4-127.5-212.2-127.5-347.6 0-272.8 198.5-494.2 443.4-494.2"/></g><g id="g5542" transform="matrix(-.35278 0 0 .35278 141.233 164.321)"><path id="path5544" class="st3" d="M84.8 1203.7c-1.1 18-3.4 45.8-15.4 78.7-25.1 69.1-75.4 92.3-120.1 76.2-40.9-14.9-53.9-55.4-32.8-113 4.7-13.5 9.7-21.7 14.1-31.9l-2.3-6.3c-15.2-2-35.5-1.6-46.7 2.3-19.2 28.7-56.8 74.7-103.7 58-27.6-10.2-41.3-36.2-29.8-69 8.9-24.7 26.4-42.4 42.6-51.8 11.3-6.9 15.5-14.8 6.4-24.3-6.4-6.6-15.8-15.3-25.6-17-32.7 11.8-70.3 44.9-86 88.2-33.5 92.5 22 133.9 49.7 144.1 19.6 7.1 38 7.2 52.8 3.6 14.9-5 32.9-13.2 60.1-33.4-7.6 68.5 22.2 111.7 71.6 129.4 84.6 30.7 162.6-32.5 196.9-127.4 14.4-39.6 13.9-62.2 9.6-72.9-5.6-13.6-21.3-28.8-38.3-34l-3.1.5z"/></g><g id="g5546" transform="matrix(-.35278 0 0 .35278 145.315 170.812)"><path id="path5548" class="st3" d="M-294.1 1806.1c12.8 8.8 34.5 16.3 49.9 14.4 19.5-5.2 41.7-20.6 60.3-40.1 58.2-60.8 79.1-151.1 0-226.8-46.9-45-98.8-53.3-139.3-47.2-38.5 5.7-73.8 24.7-101.5 53.5-40.2 41.8-42 81-40.2 89.8 9.2 8.5 24.7 14.3 35.7 13.7 10.9 0 15.8-9.1 19-19.6 6-19 16-35.9 29.2-49.5 36.6-38.2 91-32.7 135 9.3 58.4 55.8 39.9 120.6 6.3 155.5-17.8 18.9-38.8 32.2-53.5 39.9l-.9 7.1z"/></g><g id="g5550" transform="matrix(-.35278 0 0 .35278 148.62 169.588)"><path id="path5552" class="st3" d="M-600.7 1692.5c-95.4 49-105.1 142.7-67.8 214.7 28.6 55.8 71.7 82.6 109.6 91.2 34 7.8 71.1 3 107.4-15.7 83-42.6 111.5-129.8 66.9-216.5-24.4-46.9-65-79.1-111.6-88.6-32.8-7.8-70.7-2.6-103.8 14.1l-.7.8zm24.6 44.3c38.4-19.6 86.7 2.5 116.9 61.3 35.4 68.4 19.7 122-19.9 141.6-38.8 20-84.7-3-116.7-65.4-30.4-58.7-23.3-115.3 19.1-137.1l.6-.4z"/></g><g id="g5554" transform="matrix(-.35278 0 0 .35278 150.252 171.122)"><path id="path5556" class="st3" d="M-752.2 1834.8c-2.6-15.2 2.2-27.7 14.3-35.2l-2.3-11.5c-4.9-7.8-17.9-19.5-27.8-26.1-7-1.5-14.4-2.2-21.4-1-31.6 6-40.4 39-34.2 79.4-28.6-42-62.7-61.6-97.1-55.4-15.8 2.9-28.9 13.5-33.1 21.6.8 11.8 9.9 38.4 24.1 52.2 6.5 6.6 15.1 9.8 24.2 5.1 10.6-5.9 18.2-7.6 24.8-8.6 13.1-2.6 36.5 6.1 53.9 34.3 6.9 10.7 10.2 19 13.1 34.4 8 44.3 19.4 107.1 25.8 142.9 1.9 11.1 4.4 15.3 17.5 14.4 22.2-1.1 42.1-3.7 63.7-7.8-7.7-32.4-15.7-74.7-25.1-125.8l-20.4-112.9z"/></g><g id="g5558" transform="matrix(-.35278 0 0 .35278 155.466 173.48)"><path id="path5560" class="st3" d="M-1236.1 2053.7c2.8 12.5 20.7 33.1 54.4 36.2 28.3 2.9 48.5-11.8 58.3-35.7 14.7 20.1 46.3 45.6 82.2 49.2 46.6 4.6 85.9-24 90.7-75.8 7.1-72.8-85.2-108.1-130-121.5-12.6-3.7-21.5-6.3-27.6-8.2l1.7-17.8c2.4-27.3 21.2-48.7 54.1-45.5 22.2 2.1 47.3 19.7 61.4 30.8 17.7 12.4 31.2 10.3 41.8-15.9l6.3-14.9c-21.4-23.2-72.8-56.3-122-61.3-63.1-6-108.4 27.8-115.4 99.9-2.7 29.8-6.1 96.2-10.8 140.9-.9 10.3-8.7 18-23.4 16.5-6.8-.5-13.9-4.2-19-7l-2.7 30.1zm213.1-45.1c-1.8 20.5-15.3 34.8-37.4 32.5-23.2-2.1-42.6-18.7-51.8-30.9-3.1-3.7-4.3-10.8-3.1-23.2l4.3-46c58.5 14.6 90.8 39.8 88.3 66.8l-.3.8z"/></g><g id="g5562" transform="matrix(-.35278 0 0 .35278 158.59 171.91)"><path id="path5564" class="st3" d="M-1526 1907.9c-3.5 14.8-3 38 4.3 51.6 11.9 16.5 34.1 31.6 58.9 42.2 77.4 33 169.4 20.7 212.3-80.4 25.2-59.7 14.8-111-5.1-146.7-19.3-34.2-49.3-60.5-86-76.1-53.5-22.7-90.3-10.9-98.3-6-4.6 12-4.5 28 0 38.2 3.8 10.2 14.1 11.5 25.2 11 19.3-1.2 38.8 2.1 56.4 9.6 48.7 20.4 62.7 73.9 39.1 129.5-31.6 74.5-98.9 80.1-143.3 61.1-24-10.4-44-25-56.1-36l-7.4 2z"/></g><g id="g5566" transform="matrix(-.35278 0 0 .35278 158.558 168.398)"><path id="path5568" class="st3" d="M-1523.1 1582c-78.6-73-170.2-50.5-225.5 8.8-42.4 45.8-53.1 95.4-48.4 133.9 4.1 34.6 21.2 68 51 95.8 68.2 63.5 159.8 61.2 226.3-10.2 36.1-38.7 52.6-88.1 45.8-135-3.9-33.5-21.4-67.3-48.5-92.8l-.7-.5zm-33.7 38.1c31.5 29.5 27.3 82.3-18 131-52.6 56.2-108 59.6-139.9 29.2-32-30.3-25.9-80.9 21.9-132.4 45.1-48.2 100.7-60.6 135.5-28.3l.5.5z"/></g><g id="g5570" transform="matrix(-.35278 0 0 .35278 163.278 166.3)"><path id="path5572" class="st3" d="M-1961 1387.3c-23 12.3-32.4 48.4-31.1 58.7.5 7.7 6.2 30.8 17.8 53.6 14 27.2 38.4 64.3 84.4 81.2 41.7 15.5 88.4 5.3 128.2-15.5 76.7-39.6 123.7-126.2 81.7-207.5-39.6-76.6-107.3-77.9-162.1-51.9-7.8 4-16.4 10.4-20.4 13.9-9 7.2-6.2 37.3.3 63.7 5.5 17.4 37.2 81 57.8 117-58.1 29.2-105.6.5-130-46-15.8-30.9-19.7-55.5-20.3-65.2l-6.3-2zm241.1.4c12.6 24.2 1.3 63.2-42.8 89.4-17.5-30.1-41.7-78.2-47.7-92.5-2.8-5.7 2.3-12 8.6-15.4 33.1-17.6 65.2-14 81.5 17.5l.4 1z"/></g><g id="g5574" transform="matrix(-.35278 0 0 .35278 161.179 163.55)"><path id="path5576" class="st3" d="M-1766.2 1132.2c-9.2-39.8-31.3-58.7-37.4-63-12.2 2.9-25.6 10.5-31.6 18.3-6.5 7.5-6.9 15-.2 24.4 8.1 9.9 14.4 23 17.1 35.6 4.5 19.5-7.4 35.6-23.3 39.1-11.1 2.5-21-2-31.9-13.5-10.1-8.9-36.9-40.1-55.8-57.5-22.1-20.4-47.6-27.5-75.8-21-66.9 15.5-86.5 79.2-72.3 140.3 8 35 30 69.7 51.1 80.6 15-3.9 27.1-13.4 32.6-21.6 5.7-8 2.8-16.3-3.9-23.3-11.4-13.3-23-30.8-28-53.4-5.5-22.8 5.2-43.2 24.2-47.4 13.9-3.3 24.6 2.4 40 19.7 13.8 15.2 39.1 41 49 49.5 19.8 18.8 46.8 27.6 76.8 20.4 59.5-13.7 82.5-71 69.6-126.7l-.2-.5z"/></g><g id="g5578" transform="matrix(-.35278 0 0 .35278 158.546 167.278)"><path id="path5580" class="st4" d="m-1521.9 1478.1 13.3 10.6c-1.4 6.3-2.7 13.4-1.1 19.2.7 2.8 1.9 5.3 4.3 7.3 6.5 5.1 17.1 7.8 24.5 10.9 11.4 3.7 30.7 9.1 40.3 16.4 18.8 15.1 9.9 52.1.8 73.7l-14.9-11.9c3.7-8.8 5.9-19.1-1.8-25.2-13.1-10.4-39.1-14.5-56.5-23-3.2-1.4-6-3.2-8.6-5.3-17.2-13.5-11.2-53.2-.3-72.7"/></g><g id="g5582" transform="matrix(-.35278 0 0 .35278 158.358 173.208)"><path id="path5584" class="st4" d="M-1504.4 2028.4c8.1-15 26.7-16.9 50.5-14.8l-6.2-21.1c12.3 2.4 23.7 2.8 33.8 8l9.8 36.2-3.2 8.7c-19.9-8-41.7-8.7-46.9 1.4-3.2 5.9-1 15.9 24.9 31.2 3.7 2.4 3 5.4 2.1 6.8-2.4 4.3-8.3 10-17.6 8.9-31.5-12.8-60.6-40.2-47.2-65.3"/></g><g id="g5586" transform="matrix(-.35278 0 0 .35278 141.318 164.09)"><path id="path5588" class="st1" d="M76.9 1182.3c-.9 18-3.4 45.8-15.4 78.7-25 69.2-75.3 92.3-120.1 76.3-40.9-14.9-53.7-55.1-32.7-112.9 4.8-13.7 9.6-21.6 14-32l-2.2-6.4c-15.5-2.1-35.6-1.6-46.7 2.4-19.2 28.8-56.8 74.8-103.9 57.7-27.5-9.8-41.3-36.1-29.3-69 8.7-24.3 26.2-42.2 42.5-51.7 11.2-6.9 15.5-14.9 6.1-24.6-6.1-6.5-15.4-15-25.5-16.8-32.6 11.8-70.2 45.1-86 88.3-33.3 92.4 22 133.9 49.6 143.8 19.9 7.2 38.1 7.4 52.9 3.7 14.9-4.8 32.9-13.2 60-33.5-7.6 68.8 22.2 111.6 71.8 129.5 84.5 30.9 162.6-32.5 196.9-127.5 14.4-39.6 13.9-62.4 9.6-72.8-5.5-13.7-21.4-28.8-38.2-33.8l-3.4.6z"/></g><g id="g5590" transform="matrix(-.35278 0 0 .35278 145.4 170.584)"><path id="path5592" class="st1" d="M-301.9 1784.8c12.7 8.9 34.7 16.3 50 14.7 19.6-5.4 41.7-21 60.1-40.3 58.4-60.8 79.2-151.4 0-227.2-46.7-44.7-98.6-53.1-139.2-46.9-38.4 5.6-73.8 24.5-101.3 53.1-40.3 42.4-42 80.9-40.3 90 9.3 8.4 24.6 14.1 35.5 13.6 11.2.4 15.9-8.9 19.2-19.6 5.9-18.7 15.9-35.9 29-49.6 36.5-38.1 91.1-32.4 134.9 9.4 58.4 55.7 39.9 120.4 6.5 155.4-18.2 19-39 32.5-53.7 39.9l-.7 7.5z"/></g><g id="g5594" transform="matrix(-.35278 0 0 .35278 148.703 169.359)"><path id="path5596" class="st1" d="M-608.4 1671.2c-95.4 48.9-105.1 142.9-67.9 215 28.7 55.6 71.6 82.3 109.7 90.8 33.9 7.7 71.1 2.9 107.3-15.6 82.9-42.7 111.6-129.8 66.9-216.4-24.2-46.9-64.9-79.2-111.6-88.5-32.8-7.7-70.6-2.9-103.8 14l-.6.7zm24.3 44.3c38.3-19.7 86.8 2.4 117 61.6 35.4 68.4 19.7 121.6-19.8 141.2-39 20-84.8-2.8-117-65.5-30.3-58.7-23.2-115 19.3-137l.5-.3z"/></g><g id="g5598" transform="matrix(-.35278 0 0 .35278 150.338 170.892)"><path id="path5600" class="st1" d="M-760.2 1813.4c-2.4-14.8 2.4-27.8 14.4-35.1l-2.3-11.7c-4.9-7.8-17.9-19.3-27.8-25.9-7-1.4-14.3-2.2-21.4-.8-31.6 5.5-40.6 38.6-34.4 79.1-28.4-41.9-62.8-61.7-96.9-55.5-15.9 3.1-29.1 13.6-33.3 21.8 1 11.8 10.1 38.3 24.2 52.4 6.7 6.4 15.2 9.8 24.3 4.8 10.6-5.5 18.2-7.6 24.7-8.6 13.2-2.3 36.4 6 53.8 34.6 6.8 10.5 10.3 18.9 13.1 34 8.1 44.4 19.4 107.3 25.8 143.3 2 10.8 4.4 14.9 17.6 14.3 22.2-1 42.1-3.9 63.5-7.7-7.6-32.9-15.6-74.6-24.9-126.1l-20.4-112.9z"/></g><g id="g5602" transform="matrix(-.35278 0 0 .35278 155.55 173.255)"><path id="path5604" class="st1" d="M-1243.9 2032.7c2.7 12.4 20.7 32.6 54.5 35.9 28.1 2.9 48.5-11.6 58-35.7 15 20.2 46.6 45.8 82.3 49.4 46.6 4.3 85.9-24.2 90.9-75.8 7-72.9-85.4-108.3-130.2-121.8-12.4-3.4-21.3-6.2-27.5-7.9l1.7-18c2.5-27.2 21-48.5 54.3-45.4 22.2 2 47.1 19.7 61.3 30.8 17.6 12.3 31.2 10.4 41.8-16l6.4-14.6c-21.5-23.4-73.1-56.8-121.9-61.5-63.4-6.1-108.6 27.8-115.5 99.9-2.8 29.5-6.2 95.9-10.9 140.8-.8 10.4-8.5 18-23.3 16.5-6.7-.5-13.8-4.1-19.1-6.7l-2.8 30.1zm213.1-45.5c-2 20.7-15.6 34.7-37.6 32.8-23-2.2-42.5-18.9-51.8-30.8-3-4.1-4.3-11-3-23.6l4.3-46c58.5 14.5 90.8 39.7 88.1 66.9v.7z"/></g><g id="g5606" transform="matrix(-.35278 0 0 .35278 158.673 171.677)"><path id="path5608" class="st1" d="M-1533.7 1886.3c-3.6 14.9-3.1 38.3 4.2 51.8 11.7 16.4 34.1 31.9 58.7 42.1 77.5 33.2 169.7 20.8 212.4-80.2 25.4-59.5 14.9-111-5-146.9-19.2-34.1-49.3-60.3-86-75.9-53.5-22.7-90.5-10.9-98.2-6.2-4.5 12-4.4 28.3-.3 38.4 3.8 10.1 14.2 11.7 25.5 11.1 19.4-1.5 38.7 1.9 56.1 9.4 48.8 20.7 62.9 73.7 39.1 129.5-31.6 74.4-98.9 79.9-143.1 61-24.1-9.9-44.2-24.9-56.3-36l-7.1 1.9z"/></g><g id="g5610" transform="matrix(-.35278 0 0 .35278 158.645 168.168)"><path id="path5612" class="st1" d="M-1531 1560.6c-78.4-72.8-170.1-50.4-225.3 8.8-42.8 46.1-53.2 95.5-48.4 134.2 4 34.3 21.4 67.5 51 95.8 68.1 63.3 159.8 60.8 226.1-10.5 36.1-38.6 52.7-87.8 45.9-135.1-4.1-33.7-21.3-67.2-48.6-92.8l-.7-.4zm-33.7 38.1c31.6 29.7 27.2 82.3-18.1 131.1-52.5 56.3-108 59.7-139.8 29-32.2-29.9-25.8-80.9 22.1-132.4 44.9-48.2 100.4-60.7 135.2-27.9l.6.2z"/></g><g id="g5614" transform="matrix(-.35278 0 0 .35278 163.363 166.07)"><path id="path5616" class="st1" d="M-1968.9 1366c-22.9 12.4-32.3 48.7-31 58.8.5 7.4 6 30.9 17.9 53.5 13.9 27 38 64.4 84.3 81 41.7 15.6 88.4 5.3 128.3-15.4 76.7-39.7 123.7-126.2 81.5-207.5-39.6-76.5-107.3-77.8-162.1-51.7-7.9 4.3-16.3 10.3-20.6 13.8-8.5 6.9-5.9 37.3.6 63.5 5.4 17.4 37.1 81.1 57.6 117.3-58.2 29.2-105.6.4-129.7-46.3-15.8-30.7-19.7-55.1-20.4-65.1l-6.4-1.9zm241.2.2c12.7 24.6 1.4 63.4-42.7 89.7-17.7-30.1-41.7-78.2-48.1-92.3-2.6-5.9 2.7-12.2 8.9-15.4 33.2-17.8 65-14.3 81.5 17.4l.4.6z"/></g><g id="g5618" transform="matrix(-.35278 0 0 .35278 161.264 163.32)"><path id="path5620" class="st1" d="M-1774.1 1110.8c-9.1-39.6-31.2-58.5-37.5-62.9-12.2 3.1-25.3 10.4-31.5 18.2-6.5 7.6-6.8 15.1-.3 24.6 8.3 9.8 14.5 23.2 17.4 35.6 4.4 19.7-7.7 35.2-23.6 39.2-11.1 2.4-20.9-2.1-31.9-13.4-10-9.2-36.6-40.2-55.7-57.6-22.2-20.5-47.4-27.5-75.7-21.1-67 15.4-86.6 79.2-72.4 140.4 8.1 34.7 29.9 69.6 51.1 80.5 15.1-3.7 27.2-13.4 32.7-21.3 5.6-8.1 2.8-16.4-4-23.5-11.4-13.5-23.1-30.9-28.1-52.9-5.4-23.4 5.3-43.3 24-47.8 14-3.2 24.8 2.5 40.2 19.7 13.8 15.2 39.3 40.7 48.8 49.5 20 18.7 47.2 27.4 77 20.6 59.3-13.7 82.6-71.2 69.8-127l-.3-.8z"/></g><g id="g5622" transform="matrix(-.35278 0 0 .35278 158.63 167.048)"><path id="path5624" class="st1" d="m-1529.7 1456.7 13.4 10.7c-1.5 6.3-2.9 13.5-1.3 19.2.6 2.9 2.1 5.3 4.5 7.3 6.1 5.1 16.7 7.9 24.4 10.9 11.2 3.8 30.8 9.2 40.4 16.4 18.9 15.2 9.7 52 .6 73.7l-14.7-11.9c3.7-8.8 5.9-19.1-1.9-25.2-13-10.3-39.1-14-56.5-22.9-3.2-1.6-6.3-3-8.6-5.3-17.4-13.7-11.1-53.4-.3-72.9"/></g><g id="g5626" transform="matrix(-.35278 0 0 .35278 158.442 172.98)"><path id="path5628" class="st1" d="M-1512.3 2007.2c8.1-15.1 26.8-16.8 50.6-14.7l-6.4-21.4c12.3 2.4 23.8 2.9 33.7 8l9.7 36.3-3 8.6c-20-8-41.7-8.9-47.2 1.3-3.1 6.2-.8 16 25 31.6 3.9 2.3 3.3 4.9 2.2 6.5-2.2 4.1-8.3 10.1-17.6 9.1-31.1-12.7-60.3-40.4-47-65.3"/></g><g transform="matrix(-.35278 0 0 .35278 399.702 -165.07)" id="g5630"><defs><path id="SVGID_1_" d="M-543.9 2034.6c-33.8-42.8-66.8-118.5 0-218.4 63.2-94.8 169.6-97.1 238.9-28.7 10 9.9 19.3 21.1 27.4 33.8 8.2-12.5 17.2-23.7 27.1-33.4 69.3-68.6 174.5-65.1 240.1 28.2 65.9 93.6 33.8 175.5 0 218.4l-267.2 294.6-266.3-294.5z"/></defs><clipPath id="SVGID_2_"><use xlink:href="#SVGID_1_" style="overflow:visible"/></clipPath><g id="g5632" style="clip-path:url(#SVGID_2_)"><g id="g5638"><g id="g5640"><linearGradient id="path5648_1_" gradientUnits="userSpaceOnUse" x1="445.505" y1="2658.39" x2="457.407" y2="2658.39" gradientTransform="scale(15.9527 -15.9527) rotate(48.316 3304.195 770.124)"><stop offset="0" style="stop-color:#fff200"/><stop offset="1" style="stop-color:#f78d11"/></linearGradient><path id="path5648" d="M-543.9 2034.6c-33.8-42.8-66.8-118.5 0-218.4 63.2-94.8 169.6-97.1 238.9-28.7 10 9.9 19.3 21.1 27.4 33.8 8.2-12.5 17.2-23.7 27.1-33.4 69.3-68.6 174.5-65.1 240.1 28.2 65.9 93.6 33.8 175.5 0 218.4l-267.2 294.6-266.3-294.5z" style="fill:url(#path5648_1_)"/></g></g></g></g><g transform="matrix(-.35278 0 0 .35278 399.702 -165.07)" id="g5650"><defs><path id="SVGID_3_" d="M-537.7 2035.1c-15.3-19.1-29.6-44.6-35.1-75.2-7.9-43.3 4.1-92.6 43.2-145.1 62.3-83.5 159.1-86.4 224-22.6 9.3 9.2 18.1 19.7 25.7 31.6 7.7-10.9 16.2-20.5 25.3-28.8 12.2-12.1 27.9-18.3 42-25.3 16-7.9 35.3-16.2 52.5-17.2 47.4-6.7 97.4 13.9 136.5 62.3C16 1864 27 1914.7 19 1959.1 13.4 1990-.5 2016-15.7 2035c0 0-114 126-119.1 131.9-4.1 4.8-139.4 154.2-142.3 157.5-4.4-5-260.6-289.3-260.6-289.3"/></defs><clipPath id="SVGID_4_"><use xlink:href="#SVGID_3_" style="overflow:visible"/></clipPath><g id="g5652" style="clip-path:url(#SVGID_4_)"><g id="g5658"><g id="g5660"><linearGradient id="path5672_1_" gradientUnits="userSpaceOnUse" x1="555.947" y1="2649.091" x2="567.849" y2="2649.091" gradientTransform="matrix(-10.8551 12 12 10.8551 -26215.793 -33294.309)"><stop offset="0" style="stop-color:#fee802"/><stop offset=".294" style="stop-color:#fdd705"/><stop offset=".761" style="stop-color:#f9ad0c"/><stop offset="1" style="stop-color:#f78d11"/></linearGradient><path id="path5672" d="M-537.7 2035.1c-15.3-19.1-29.6-44.6-35.1-75.2-7.9-43.3 4.1-92.6 43.2-145.1 62.3-83.5 159.1-86.4 224-22.6 9.3 9.2 18.1 19.7 25.7 31.6 7.7-10.9 16.2-20.5 25.3-28.8 12.2-12.1 27.9-18.3 42-25.3 16-7.9 35.3-16.2 52.5-17.2 47.4-6.7 97.4 13.9 136.5 62.3C16 1864 27 1914.7 19 1959.1 13.4 1990-.5 2016-15.7 2035c0 0-114 126-119.1 131.9-4.1 4.8-139.4 154.2-142.3 157.5-4.4-5-260.6-289.3-260.6-289.3" style="fill:url(#path5672_1_)"/></g></g></g></g><g transform="matrix(-.35278 0 0 .35278 399.702 -165.07)" id="g5674"><defs><path id="SVGID_5_" d="M-531.7 2035.5c-16-19.9-30.2-46.5-35-77.9-7.2-46.9 10.8-96.3 51.2-144.4 60.8-72.3 148.6-75.6 209-16.5 8.7 8.6 16.9 18.4 24.1 29.4 7.2-9.2 15-17.3 23.4-24.2 10.8-10.7 27.3-12.6 39.8-18.8 14.3-7.1 33.9-18.4 49.2-19.4 44.5-10.3 93.2 7.2 132.8 49.5C4.5 1857.7 21 1909 13.6 1957c-4.8 31.7-18.7 58.8-34.7 78.6 0 .1-106.3 117.7-116.5 129.5-8.2 9.4-133.5 148.1-139.2 154.6-8.6-10.1-254.9-284.2-254.9-284.2"/></defs><clipPath id="SVGID_6_"><use xlink:href="#SVGID_5_" style="overflow:visible"/></clipPath><g id="g5676" style="clip-path:url(#SVGID_6_)"><g id="g5682"><g id="g5684"><linearGradient id="path5696_1_" gradientUnits="userSpaceOnUse" x1="554.656" y1="2649.855" x2="566.558" y2="2649.855" gradientTransform="scale(-16.4006 16.4006) rotate(47.42 3160.172 789.956)"><stop offset="0" style="stop-color:#fdde03"/><stop offset=".294" style="stop-color:#fdd904"/><stop offset=".761" style="stop-color:#fab50a"/><stop offset="1" style="stop-color:#f78d11"/></linearGradient><path id="path5696" d="M-531.7 2035.5c-16-19.9-30.2-46.5-35-77.9-7.2-46.9 10.8-96.3 51.2-144.4 60.8-72.3 148.6-75.6 209-16.5 8.7 8.6 16.9 18.4 24.1 29.4 7.2-9.2 15-17.3 23.4-24.2 10.8-10.7 27.3-12.6 39.8-18.8 14.3-7.1 33.9-18.4 49.2-19.4 44.5-10.3 93.2 7.2 132.8 49.5C4.5 1857.7 21 1909 13.6 1957c-4.8 31.7-18.7 58.8-34.7 78.6 0 .1-106.3 117.7-116.5 129.5-8.2 9.4-133.5 148.1-139.2 154.6-8.6-10.1-254.9-284.2-254.9-284.2" style="fill:url(#path5696_1_)"/></g></g></g></g><g transform="matrix(-.35278 0 0 .35278 399.702 -165.07)" id="g5698"><defs><path id="SVGID_7_" d="M-525.5 2036.1c-16.7-20.7-30.8-48.3-35-80.5-6.5-50.6 17.3-99.9 59.3-143.7 58.8-61.3 138.1-64.9 194.1-10.4 8.1 8 15.8 16.9 22.4 27.1 6.7-7.6 13.9-14.1 21.6-19.5 9.5-9.4 26.7-6.9 37.7-12.4 12.4-6.2 32.5-20.7 45.8-21.5 41.7-13.9 89.1.3 129.2 36.7 43.9 39.8 65.5 91.6 58.9 143.1-4.2 32.5-17.9 60.6-34.7 81.2 0 .1-98.6 109.5-113.9 127-12.3 14.2-127.6 142-136.1 151.8-13.1-15.1-249.3-278.9-249.3-278.9"/></defs><clipPath id="SVGID_8_"><use xlink:href="#SVGID_7_" style="overflow:visible"/></clipPath><g id="g5700" style="clip-path:url(#SVGID_8_)"><g id="g5706"><g id="g5708"><linearGradient id="path5720_1_" gradientUnits="userSpaceOnUse" x1="553.389" y1="2650.578" x2="565.291" y2="2650.578" gradientTransform="scale(-16.6221 16.6221) rotate(46.972 3192.928 783.501)"><stop offset="0" style="stop-color:#fcd405"/><stop offset=".294" style="stop-color:#fddc04"/><stop offset=".761" style="stop-color:#fabc09"/><stop offset="1" style="stop-color:#f78d11"/></linearGradient><path id="path5720" d="M-525.5 2036.1c-16.7-20.7-30.8-48.3-35-80.5-6.5-50.6 17.3-99.9 59.3-143.7 58.8-61.3 138.1-64.9 194.1-10.4 8.1 8 15.8 16.9 22.4 27.1 6.7-7.6 13.9-14.1 21.6-19.5 9.5-9.4 26.7-6.9 37.7-12.4 12.4-6.2 32.5-20.7 45.8-21.5 41.7-13.9 89.1.3 129.2 36.7 43.9 39.8 65.5 91.6 58.9 143.1-4.2 32.5-17.9 60.6-34.7 81.2 0 .1-98.6 109.5-113.9 127-12.3 14.2-127.6 142-136.1 151.8-13.1-15.1-249.3-278.9-249.3-278.9" style="fill:url(#path5720_1_)"/></g></g></g></g><g transform="matrix(-.35278 0 0 .35278 399.702 -165.07)" id="g5722"><defs><path id="SVGID_9_" d="M-519.4 2036.6c-17.5-21.5-31.4-50.3-34.9-83.2-5.7-54.3 23.3-103.3 67.3-143 56-50.6 127.6-54.1 179-4.2 7.6 7.3 14.6 15.5 20.8 24.8 6.2-5.9 12.8-10.9 19.7-14.9 4.6-4.6 12.3-4.4 19.8-4.2 5.8.1 11.6.3 15.7-1.7 10.7-5.3 31-22.9 42.5-23.6 38.9-17.4 85.4-6.5 125.4 23.9 46.3 35.1 72.8 87.5 67 142.5-3.5 33.3-17.2 62.4-34.7 83.8 0 .1-90.9 101.2-111.2 124.5-16.5 19-121.7 135.9-133.1 149-17-20.2-243.3-273.7-243.3-273.7"/></defs><clipPath id="SVGID_10_"><use xlink:href="#SVGID_9_" style="overflow:visible"/></clipPath><g id="g5724" style="clip-path:url(#SVGID_10_)"><g id="g5730"><g id="g5732"><linearGradient id="path5744_1_" gradientUnits="userSpaceOnUse" x1="552.082" y1="2651.249" x2="563.984" y2="2651.249" gradientTransform="scale(-16.8622 16.8622) rotate(46.524 3226.347 776.926)"><stop offset="0" style="stop-color:#fcca07"/><stop offset=".294" style="stop-color:#fdde03"/><stop offset=".761" style="stop-color:#fbc408"/><stop offset="1" style="stop-color:#f78d11"/></linearGradient><path id="path5744" d="M-519.4 2036.6c-17.5-21.5-31.4-50.3-34.9-83.2-5.7-54.3 23.3-103.3 67.3-143 56-50.6 127.6-54.1 179-4.2 7.6 7.3 14.6 15.5 20.8 24.8 6.2-5.9 12.8-10.9 19.7-14.9 4.6-4.6 12.3-4.4 19.8-4.2 5.8.1 11.6.3 15.7-1.7 10.7-5.3 31-22.9 42.5-23.6 38.9-17.4 85.4-6.5 125.4 23.9 46.3 35.1 72.8 87.5 67 142.5-3.5 33.3-17.2 62.4-34.7 83.8 0 .1-90.9 101.2-111.2 124.5-16.5 19-121.7 135.9-133.1 149-17-20.2-243.3-273.7-243.3-273.7" style="fill:url(#path5744_1_)"/></g></g></g></g><g transform="matrix(-.35278 0 0 .35278 399.702 -165.07)" id="g5746"><defs><path id="SVGID_11_" d="M-513.2 2037c-18.3-22.3-32-52.1-34.8-85.9-4.9-58 29-106.8 75.4-142.3 52.6-40.2 117.1-43.4 164.1 1.9 6.9 6.6 13.4 14.2 19.1 22.5 5.7-4.3 11.7-7.8 17.9-10.3 3.7-3.6 10.9-2 17.9-.4 6 1.4 11.9 2.7 15.5 1 8.9-4.4 29.7-25.1 39.2-25.7 36-21 81.8-13.6 121.8 11 49 30.2 80 83.3 75.1 141.9-2.9 34-16.4 64.2-34.8 86.5 0 .1-83.2 92.9-108.5 122-20.6 23.7-115.8 129.9-130 146.1-21.7-25-237.9-268.3-237.9-268.3"/></defs><clipPath id="SVGID_12_"><use xlink:href="#SVGID_11_" style="overflow:visible"/></clipPath><g id="g5748" style="clip-path:url(#SVGID_12_)"><g id="g5754"><g id="g5756"><linearGradient id="path5768_1_" gradientUnits="userSpaceOnUse" x1="550.745" y1="2651.867" x2="562.647" y2="2651.867" gradientTransform="scale(-17.1197 17.1197) rotate(46.076 3260.493 770.248)"><stop offset="0" style="stop-color:#fbc008"/><stop offset=".294" style="stop-color:#fee003"/><stop offset=".761" style="stop-color:#fccc06"/><stop offset="1" style="stop-color:#f78d11"/></linearGradient><path id="path5768" d="M-513.2 2037c-18.3-22.3-32-52.1-34.8-85.9-4.9-58 29-106.8 75.4-142.3 52.6-40.2 117.1-43.4 164.1 1.9 6.9 6.6 13.4 14.2 19.1 22.5 5.7-4.3 11.7-7.8 17.9-10.3 3.7-3.6 10.9-2 17.9-.4 6 1.4 11.9 2.7 15.5 1 8.9-4.4 29.7-25.1 39.2-25.7 36-21 81.8-13.6 121.8 11 49 30.2 80 83.3 75.1 141.9-2.9 34-16.4 64.2-34.8 86.5 0 .1-83.2 92.9-108.5 122-20.6 23.7-115.8 129.9-130 146.1-21.7-25-237.9-268.3-237.9-268.3" style="fill:url(#path5768_1_)"/></g></g></g></g><g transform="matrix(-.35278 0 0 .35278 399.702 -165.07)" id="g5770"><defs><path id="SVGID_13_" d="M-507.1 2037.6c-19-23.1-32.5-54-34.7-88.6-4-61.6 34.2-110.5 83.4-141.6 48.4-30.5 106.5-32.5 149.2 8.1 6.3 6 12.2 12.8 17.4 20.2 5.2-2.6 10.6-4.5 16.1-5.6 2.8-2.9 9.7.1 16.4 3.1 6 2.7 11.9 5.4 14.9 3.9 7.1-3.5 28.3-27.4 35.9-27.9 33.2-24.5 78.4-21 118.1-1.8 51.9 25.1 87.2 79.1 83.2 141.3-2.3 34.8-15.6 66-34.7 89.1 0 .2-75.5 84.6-105.9 119.6-24.7 28.4-109.8 123.7-126.9 143.3-26.2-30.2-232.4-263.1-232.4-263.1"/></defs><clipPath id="SVGID_14_"><use xlink:href="#SVGID_13_" style="overflow:visible"/></clipPath><g id="g5772" style="clip-path:url(#SVGID_14_)"><g id="g5778"><g id="g5780"><linearGradient id="path5792_1_" gradientUnits="userSpaceOnUse" x1="549.408" y1="2652.431" x2="561.31" y2="2652.431" gradientTransform="scale(-17.388 17.388) rotate(45.628 3295.253 763.453)"><stop offset="0" style="stop-color:#fab60a"/><stop offset=".294" style="stop-color:#fee303"/><stop offset=".761" style="stop-color:#fcd305"/><stop offset="1" style="stop-color:#f78d11"/></linearGradient><path id="path5792" d="M-507.1 2037.6c-19-23.1-32.5-54-34.7-88.6-4-61.6 34.2-110.5 83.4-141.6 48.4-30.5 106.5-32.5 149.2 8.1 6.3 6 12.2 12.8 17.4 20.2 5.2-2.6 10.6-4.5 16.1-5.6 2.8-2.9 9.7.1 16.4 3.1 6 2.7 11.9 5.4 14.9 3.9 7.1-3.5 28.3-27.4 35.9-27.9 33.2-24.5 78.4-21 118.1-1.8 51.9 25.1 87.2 79.1 83.2 141.3-2.3 34.8-15.6 66-34.7 89.1 0 .2-75.5 84.6-105.9 119.6-24.7 28.4-109.8 123.7-126.9 143.3-26.2-30.2-232.4-263.1-232.4-263.1" style="fill:url(#path5792_1_)"/></g></g></g></g><g transform="matrix(-.35278 0 0 .35278 399.702 -165.07)" id="g5794"><defs><path id="SVGID_15_" d="M-501 2038.1c-19.7-23.9-32.9-55.9-34.6-91.3-3.1-65.3 38.9-114.8 91.4-140.8 43.7-21.6 96.2-21.8 134.3 14.2 5.7 5.4 11 11.4 15.8 18 4.7-1 9.4-1.3 14.1-1.1 2.1-2.1 8.6 2.2 15 6.6 6 4 11.9 8.1 14.1 6.9 5.4-2.6 26.9-29.7 32.6-30 30.4-28.1 75.2-28.5 114.4-14.6 54.9 19.6 94.3 74.9 91.3 140.7-1.7 35.6-14.8 67.8-34.7 91.6 0 .2-67.7 76.3-103.2 117.2-28.8 33.2-104 117.7-123.8 140.5-30.4-35.3-226.7-257.9-226.7-257.9"/></defs><clipPath id="SVGID_16_"><use xlink:href="#SVGID_15_" style="overflow:visible"/></clipPath><g id="g5796" style="clip-path:url(#SVGID_16_)"><g id="g5802"><g id="g5804"><linearGradient id="path5816_1_" gradientUnits="userSpaceOnUse" x1="548.083" y1="2652.949" x2="559.985" y2="2652.949" gradientTransform="scale(-17.6639 17.6639) rotate(45.18 3330.673 756.548)"><stop offset="0" style="stop-color:#f9ac0c"/><stop offset=".294" style="stop-color:#fee502"/><stop offset=".761" style="stop-color:#fddb04"/><stop offset="1" style="stop-color:#f78d11"/></linearGradient><path id="path5816" d="M-501 2038.1c-19.7-23.9-32.9-55.9-34.6-91.3-3.1-65.3 38.9-114.8 91.4-140.8 43.7-21.6 96.2-21.8 134.3 14.2 5.7 5.4 11 11.4 15.8 18 4.7-1 9.4-1.3 14.1-1.1 2.1-2.1 8.6 2.2 15 6.6 6 4 11.9 8.1 14.1 6.9 5.4-2.6 26.9-29.7 32.6-30 30.4-28.1 75.2-28.5 114.4-14.6 54.9 19.6 94.3 74.9 91.3 140.7-1.7 35.6-14.8 67.8-34.7 91.6 0 .2-67.7 76.3-103.2 117.2-28.8 33.2-104 117.7-123.8 140.5-30.4-35.3-226.7-257.9-226.7-257.9" style="fill:url(#path5816_1_)"/></g></g></g></g><g transform="matrix(-.35278 0 0 .35278 399.702 -165.07)" id="g5818"><defs><path id="SVGID_17_" d="M-494.8 2038.6c-20.5-24.6-33.4-57.8-34.5-93.9-2.1-69 43.1-120.3 99.5-140.1 38.5-13.5 85.7-11.1 119.3 20.3 5.1 4.8 9.8 10 14.1 15.7 4.2.7 8.3 1.9 12.3 3.6 1.4-1.4 7.6 4.3 13.7 9.9 5.9 5.4 11.7 10.8 13.3 10.1 3.6-1.8 25.5-31.9 29.3-32.1 27.5-31.6 71.9-36.5 110.7-27.4 58 13.6 101.4 70.7 99.4 140-1.1 36.3-14 69.6-34.7 94.3 0 .2-60 68.1-100.5 114.7-33 38-98 111.6-120.7 137.6-35-40.3-221.2-252.7-221.2-252.7"/></defs><clipPath id="SVGID_18_"><use xlink:href="#SVGID_17_" style="overflow:visible"/></clipPath><g id="g5820" style="clip-path:url(#SVGID_18_)"><g id="g5826"><g id="g5828"><linearGradient id="path5840_1_" gradientUnits="userSpaceOnUse" x1="546.798" y1="2653.42" x2="558.7" y2="2653.42" gradientTransform="scale(-17.9401 17.9401) rotate(44.732 3366.717 749.533)"><stop offset="0" style="stop-color:#f8a10e"/><stop offset=".294" style="stop-color:#fee802"/><stop offset=".761" style="stop-color:#fee303"/><stop offset="1" style="stop-color:#f78d11"/></linearGradient><path id="path5840" d="M-494.8 2038.6c-20.5-24.6-33.4-57.8-34.5-93.9-2.1-69 43.1-120.3 99.5-140.1 38.5-13.5 85.7-11.1 119.3 20.3 5.1 4.8 9.8 10 14.1 15.7 4.2.7 8.3 1.9 12.3 3.6 1.4-1.4 7.6 4.3 13.7 9.9 5.9 5.4 11.7 10.8 13.3 10.1 3.6-1.8 25.5-31.9 29.3-32.1 27.5-31.6 71.9-36.5 110.7-27.4 58 13.6 101.4 70.7 99.4 140-1.1 36.3-14 69.6-34.7 94.3 0 .2-60 68.1-100.5 114.7-33 38-98 111.6-120.7 137.6-35-40.3-221.2-252.7-221.2-252.7" style="fill:url(#path5840_1_)"/></g></g></g></g><g transform="matrix(-.35278 0 0 .35278 399.702 -165.07)" id="g5842"><defs><path id="SVGID_19_" d="M-488.7 2039.1c-21.2-25.4-33.8-59.7-34.4-96.6-1-72.7 47.1-128 107.5-139.5 33.4-6.3 75.2-.4 104.4 26.4 4.5 4.1 8.6 8.6 12.4 13.5 3.7 2.4 7.2 5.1 10.5 8.2.7-.7 6.6 6.2 12.5 13.2 5.8 6.8 11.6 13.6 12.3 13.3 1.8-.9 24-34.2 25.9-34.3 24.7-35.2 68.6-44.6 107-40.2 61 7 108.5 66.6 107.5 139.4-.5 37.1-13.2 71.4-34.6 96.9 0 .3-52.3 59.8-97.9 112.2-37.1 42.7-92.1 105.5-117.6 134.8-39.3-45.2-215.5-247.3-215.5-247.3"/></defs><clipPath id="SVGID_20_"><use xlink:href="#SVGID_19_" style="overflow:visible"/></clipPath><g id="g5844" style="clip-path:url(#SVGID_20_)"><g id="g5850"><g id="g5852"><linearGradient id="path5864_1_" gradientUnits="userSpaceOnUse" x1="545.568" y1="2653.849" x2="557.47" y2="2653.849" gradientTransform="scale(-18.211 18.211) rotate(44.284 3403.411 742.42)"><stop offset="0" style="stop-color:#f7970f"/><stop offset=".294" style="stop-color:#feea01"/><stop offset=".761" style="stop-color:#feea01"/><stop offset="1" style="stop-color:#f78d11"/></linearGradient><path id="path5864" d="M-488.7 2039.1c-21.2-25.4-33.8-59.7-34.4-96.6-1-72.7 47.1-128 107.5-139.5 33.4-6.3 75.2-.4 104.4 26.4 4.5 4.1 8.6 8.6 12.4 13.5 3.7 2.4 7.2 5.1 10.5 8.2.7-.7 6.6 6.2 12.5 13.2 5.8 6.8 11.6 13.6 12.3 13.3 1.8-.9 24-34.2 25.9-34.3 24.7-35.2 68.6-44.6 107-40.2 61 7 108.5 66.6 107.5 139.4-.5 37.1-13.2 71.4-34.6 96.9 0 .3-52.3 59.8-97.9 112.2-37.1 42.7-92.1 105.5-117.6 134.8-39.3-45.2-215.5-247.3-215.5-247.3" style="fill:url(#path5864_1_)"/></g></g></g></g><g transform="matrix(-.35278 0 0 .35278 399.702 -165.07)" id="g5866"><defs><path id="SVGID_21_" d="M-482.6 2039.6c-22-26.2-34.3-61.6-34.3-99.2 0-76.4 51.7-138.8 115.5-138.8 38.4 0 87.2 18 108.9 56.5l22.7 32.9 22.7-36.4c21.9-38.8 65-53 103.3-53 63.7 0 115.6 62.3 115.6 138.8 0 37.9-12.4 73.2-34.7 99.5 0 .3-44.5 51.4-95.2 109.8-41.2 47.5-86.2 99.4-114.5 132-43.8-50.3-210-242.1-210-242.1"/></defs><clipPath id="SVGID_22_"><use xlink:href="#SVGID_21_" style="overflow:visible"/></clipPath><g id="g5868" style="clip-path:url(#SVGID_22_)"><g id="g5874"><g id="g5876"><linearGradient id="path5888_1_" gradientUnits="userSpaceOnUse" x1="447.795" y1="2652.541" x2="459.697" y2="2652.541" gradientTransform="scale(18.472 -18.472) rotate(43.837 3638.949 712.332)"><stop offset="0" style="stop-color:#f78d11"/><stop offset=".294" style="stop-color:#ffed01"/><stop offset=".761" style="stop-color:#fff200"/><stop offset="1" style="stop-color:#f78d11"/></linearGradient><path id="path5888" d="M-482.6 2039.6c-22-26.2-34.3-61.6-34.3-99.2 0-76.4 51.7-138.8 115.5-138.8 38.4 0 87.2 18 108.9 56.5l22.7 32.9 22.7-36.4c21.9-38.8 65-53 103.3-53 63.7 0 115.6 62.3 115.6 138.8 0 37.9-12.4 73.2-34.7 99.5 0 .3-44.5 51.4-95.2 109.8-41.2 47.5-86.2 99.4-114.5 132-43.8-50.3-210-242.1-210-242.1" style="fill:url(#path5888_1_)"/></g></g></g></g><g transform="matrix(-.35278 0 0 .35278 399.702 -165.07)" id="g5890"><defs><path id="SVGID_23_" d="M-926.3 1449.1c-33.8-42.9-66.7-118.6 0-218.6 63.3-94.6 169.6-97 238.9-28.6 10.1 9.9 19.3 21.2 27.5 34 8.1-12.6 17.2-23.7 27.1-33.4 69.3-68.5 174.3-65.2 240.1 28.1 65.8 93.7 33.6 175.5 0 218.6l-267.2 294.5-266.4-294.6z"/></defs><clipPath id="SVGID_24_"><use xlink:href="#SVGID_23_" style="overflow:visible"/></clipPath><g id="g5892" style="clip-path:url(#SVGID_24_)"><g id="g5898"><g id="g5900"><linearGradient id="path5908_1_" gradientUnits="userSpaceOnUse" x1="455.435" y1="2697.99" x2="467.337" y2="2697.99" gradientTransform="scale(15.6496 -15.6496) rotate(48.316 3301.672 769.135)"><stop offset="0" style="stop-color:#fff200"/><stop offset="1" style="stop-color:#f78d11"/></linearGradient><path id="path5908" d="M-926.3 1449.1c-33.8-42.9-66.7-118.6 0-218.6 63.3-94.6 169.6-97 238.9-28.6 10.1 9.9 19.3 21.2 27.5 34 8.1-12.6 17.2-23.7 27.1-33.4 69.3-68.5 174.3-65.2 240.1 28.1 65.8 93.7 33.6 175.5 0 218.6l-267.2 294.5-266.4-294.6z" style="fill:url(#path5908_1_)"/></g></g></g></g><g transform="matrix(-.35278 0 0 .35278 399.702 -165.07)" id="g5910"><defs><path id="SVGID_25_" d="M-920.1 1449.7c-15.3-19.2-29.6-44.7-35.1-75.4-7.9-43.3 4.1-92.6 43.2-145.1 62.2-83.4 159.2-86.2 224-22.5 9.5 9.3 18.2 19.8 25.8 31.7 7.6-10.9 16.1-20.5 25.3-28.8 12.2-12.1 27.9-18.3 42.1-25.3 16.1-7.9 35.3-16.2 52.6-17.3 47.3-6.7 97.3 13.9 136.3 62.3 39.7 49.3 50.7 100 42.7 144.5-5.6 30.9-19.6 57-34.6 76.1 0 0-114 125.9-119.1 131.8-4.1 4.8-139.4 154.1-142.3 157.4-4.5-5.3-260.9-289.4-260.9-289.4"/></defs><clipPath id="SVGID_26_"><use xlink:href="#SVGID_25_" style="overflow:visible"/></clipPath><g id="g5912" style="clip-path:url(#SVGID_26_)"><g id="g5918"><g id="g5920"><linearGradient id="path5932_1_" gradientUnits="userSpaceOnUse" x1="546.875" y1="2610.095" x2="558.777" y2="2610.095" gradientTransform="scale(-15.9171 15.9171) rotate(47.868 3130.731 797.327)"><stop offset="0" style="stop-color:#fee802"/><stop offset=".294" style="stop-color:#fdd705"/><stop offset=".761" style="stop-color:#f9ad0c"/><stop offset="1" style="stop-color:#f78d11"/></linearGradient><path id="path5932" d="M-920.1 1449.7c-15.3-19.2-29.6-44.7-35.1-75.4-7.9-43.3 4.1-92.6 43.2-145.1 62.2-83.4 159.2-86.2 224-22.5 9.5 9.3 18.2 19.8 25.8 31.7 7.6-10.9 16.1-20.5 25.3-28.8 12.2-12.1 27.9-18.3 42.1-25.3 16.1-7.9 35.3-16.2 52.6-17.3 47.3-6.7 97.3 13.9 136.3 62.3 39.7 49.3 50.7 100 42.7 144.5-5.6 30.9-19.6 57-34.6 76.1 0 0-114 125.9-119.1 131.8-4.1 4.8-139.4 154.1-142.3 157.4-4.5-5.3-260.9-289.4-260.9-289.4" style="fill:url(#path5932_1_)"/></g></g></g></g><g transform="matrix(-.35278 0 0 .35278 399.702 -165.07)" id="g5934"><defs><path id="SVGID_27_" d="M-914 1450.1c-16.1-20-30.3-46.6-35.1-78.1-7.2-46.9 10.9-96.3 51.3-144.4 60.8-72.3 148.6-75.5 209-16.4 8.8 8.6 16.9 18.4 24.1 29.4 7.1-9.3 15-17.3 23.4-24.2 10.8-10.7 27.3-12.6 39.9-18.8 14.3-7.1 33.9-18.5 49.2-19.4 44.5-10.3 93.1 7.2 132.7 49.5 41.7 44.6 58.2 95.8 50.8 143.8-4.8 31.7-18.7 58.8-34.6 78.7 0 0-106.3 117.6-116.5 129.3-8.2 9.5-133.6 148-139.2 154.6-8.7-10.1-255-284-255-284"/></defs><clipPath id="SVGID_28_"><use xlink:href="#SVGID_27_" style="overflow:visible"/></clipPath><g id="g5936" style="clip-path:url(#SVGID_28_)"><g id="g5942"><g id="g5944"><linearGradient id="path5956_1_" gradientUnits="userSpaceOnUse" x1="545.857" y1="2611.417" x2="557.759" y2="2611.417" gradientTransform="scale(-16.1715 16.1715) rotate(47.42 3163.146 790.924)"><stop offset="0" style="stop-color:#fdde03"/><stop offset=".294" style="stop-color:#fdd904"/><stop offset=".761" style="stop-color:#fab50a"/><stop offset="1" style="stop-color:#f78d11"/></linearGradient><path id="path5956" d="M-914 1450.1c-16.1-20-30.3-46.6-35.1-78.1-7.2-46.9 10.9-96.3 51.3-144.4 60.8-72.3 148.6-75.5 209-16.4 8.8 8.6 16.9 18.4 24.1 29.4 7.1-9.3 15-17.3 23.4-24.2 10.8-10.7 27.3-12.6 39.9-18.8 14.3-7.1 33.9-18.5 49.2-19.4 44.5-10.3 93.1 7.2 132.7 49.5 41.7 44.6 58.2 95.8 50.8 143.8-4.8 31.7-18.7 58.8-34.6 78.7 0 0-106.3 117.6-116.5 129.3-8.2 9.5-133.6 148-139.2 154.6-8.7-10.1-255-284-255-284" style="fill:url(#path5956_1_)"/></g></g></g></g><g transform="matrix(-.35278 0 0 .35278 399.702 -165.07)" id="g5958"><defs><path id="SVGID_29_" d="M-907.9 1450.6c-16.8-20.7-30.9-48.4-35-80.6-6.5-50.6 17.3-99.9 59.3-143.7 58.7-61.3 138.1-64.7 194.1-10.3 8.2 8 15.7 17 22.4 27.1 6.6-7.6 13.9-14.1 21.6-19.6 9.5-9.3 26.8-6.9 37.8-12.3 12.5-6.2 32.5-20.7 45.8-21.5 41.7-13.8 89 .3 129 36.6 43.9 39.9 65.5 91.6 58.9 143.2-4.2 32.4-18 60.6-34.7 81.2 0 .1-98.5 109.4-113.8 127-12.3 14.2-127.7 142-136.1 151.7-12.9-15.1-249.3-278.8-249.3-278.8"/></defs><clipPath id="SVGID_30_"><use xlink:href="#SVGID_29_" style="overflow:visible"/></clipPath><g id="g5960" style="clip-path:url(#SVGID_30_)"><g id="g5966"><g id="g5968"><linearGradient id="path5980_1_" gradientUnits="userSpaceOnUse" x1="544.869" y1="2612.678" x2="556.77" y2="2612.678" gradientTransform="scale(-16.4266 16.4266) rotate(46.972 3196.114 784.444)"><stop offset="0" style="stop-color:#fcd405"/><stop offset=".294" style="stop-color:#fddc04"/><stop offset=".761" style="stop-color:#fabc09"/><stop offset="1" style="stop-color:#f78d11"/></linearGradient><path id="path5980" d="M-907.9 1450.6c-16.8-20.7-30.9-48.4-35-80.6-6.5-50.6 17.3-99.9 59.3-143.7 58.7-61.3 138.1-64.7 194.1-10.3 8.2 8 15.7 17 22.4 27.1 6.6-7.6 13.9-14.1 21.6-19.6 9.5-9.3 26.8-6.9 37.8-12.3 12.5-6.2 32.5-20.7 45.8-21.5 41.7-13.8 89 .3 129 36.6 43.9 39.9 65.5 91.6 58.9 143.2-4.2 32.4-18 60.6-34.7 81.2 0 .1-98.5 109.4-113.8 127-12.3 14.2-127.7 142-136.1 151.7-12.9-15.1-249.3-278.8-249.3-278.8" style="fill:url(#path5980_1_)"/></g></g></g></g><g transform="matrix(-.35278 0 0 .35278 399.702 -165.07)" id="g5982"><defs><path id="SVGID_31_" d="M-901.7 1451.1c-17.5-21.5-31.5-50.3-35-83.3-5.7-54.3 23.4-103.3 67.3-143 56-50.5 127.7-54 179.1-4.2 7.6 7.3 14.6 15.6 20.8 24.8 6.1-5.9 12.8-10.9 19.8-14.9 4.6-4.6 12.3-4.4 19.8-4.1 5.9.1 11.6.3 15.7-1.7 10.7-5.3 31.1-23 42.6-23.6 38.9-17.4 85.3-6.6 125.3 23.8 46.3 35.2 72.8 87.5 67 142.6-3.5 33.2-17.2 62.4-34.7 83.9 0 .1-90.8 101.1-111.1 124.5-16.5 19-121.8 135.9-133.1 148.9-17.2-20.3-243.5-273.7-243.5-273.7"/></defs><clipPath id="SVGID_32_"><use xlink:href="#SVGID_31_" style="overflow:visible"/></clipPath><g id="g5984" style="clip-path:url(#SVGID_32_)"><g id="g5990"><g id="g5992"><linearGradient id="path6004_1_" gradientUnits="userSpaceOnUse" x1="543.852" y1="2613.908" x2="555.754" y2="2613.908" gradientTransform="scale(-16.6984 16.6984) rotate(46.524 3229.744 777.85)"><stop offset="0" style="stop-color:#fcca07"/><stop offset=".294" style="stop-color:#fdde03"/><stop offset=".761" style="stop-color:#fbc408"/><stop offset="1" style="stop-color:#f78d11"/></linearGradient><path id="path6004" d="M-901.7 1451.1c-17.5-21.5-31.5-50.3-35-83.3-5.7-54.3 23.4-103.3 67.3-143 56-50.5 127.7-54 179.1-4.2 7.6 7.3 14.6 15.6 20.8 24.8 6.1-5.9 12.8-10.9 19.8-14.9 4.6-4.6 12.3-4.4 19.8-4.1 5.9.1 11.6.3 15.7-1.7 10.7-5.3 31.1-23 42.6-23.6 38.9-17.4 85.3-6.6 125.3 23.8 46.3 35.2 72.8 87.5 67 142.6-3.5 33.2-17.2 62.4-34.7 83.9 0 .1-90.8 101.1-111.1 124.5-16.5 19-121.8 135.9-133.1 148.9-17.2-20.3-243.5-273.7-243.5-273.7" style="fill:url(#path6004_1_)"/></g></g></g></g><g transform="matrix(-.35278 0 0 .35278 399.702 -165.07)" id="g6006"><defs><path id="SVGID_33_" d="M-895.5 1451.6c-18.4-22.3-32.1-52.2-34.9-86-4.9-58 29.1-106.8 75.3-142.3 52.5-40.3 117-43.2 164.2 1.9 7 6.7 13.4 14.2 19.1 22.5 5.7-4.3 11.7-7.7 18-10.3 3.6-3.6 10.8-2 17.9-.4 6 1.4 11.8 2.8 15.5 1 8.9-4.4 29.7-25.2 39.2-25.8 36-20.9 81.8-13.6 121.7 11.1 48.9 30.2 80 83.2 75 141.9-2.8 34-16.3 64.2-34.6 86.5 0 .1-83.1 92.8-108.5 122-20.5 23.7-115.9 129.8-130 146.1-21.7-25.1-238-268.2-237.9-268.2"/></defs><clipPath id="SVGID_34_"><use xlink:href="#SVGID_33_" style="overflow:visible"/></clipPath><g id="g6008" style="clip-path:url(#SVGID_34_)"><g id="g6014"><g id="g6016"><linearGradient id="path6028_1_" gradientUnits="userSpaceOnUse" x1="542.818" y1="2615.097" x2="554.72" y2="2615.097" gradientTransform="scale(-16.9848 16.9848) rotate(46.076 3264.02 771.143)"><stop offset="0" style="stop-color:#fbc008"/><stop offset=".294" style="stop-color:#fee003"/><stop offset=".761" style="stop-color:#fccc06"/><stop offset="1" style="stop-color:#f78d11"/></linearGradient><path id="path6028" d="M-895.5 1451.6c-18.4-22.3-32.1-52.2-34.9-86-4.9-58 29.1-106.8 75.3-142.3 52.5-40.3 117-43.2 164.2 1.9 7 6.7 13.4 14.2 19.1 22.5 5.7-4.3 11.7-7.7 18-10.3 3.6-3.6 10.8-2 17.9-.4 6 1.4 11.8 2.8 15.5 1 8.9-4.4 29.7-25.2 39.2-25.8 36-20.9 81.8-13.6 121.7 11.1 48.9 30.2 80 83.2 75 141.9-2.8 34-16.3 64.2-34.6 86.5 0 .1-83.1 92.8-108.5 122-20.5 23.7-115.9 129.8-130 146.1-21.7-25.1-238-268.2-237.9-268.2" style="fill:url(#path6028_1_)"/></g></g></g></g><g transform="matrix(-.35278 0 0 .35278 399.702 -165.07)" id="g6030"><defs><path id="SVGID_35_" d="M-889.4 1452.1c-19.1-23.1-32.6-54.1-34.8-88.7-4-61.6 34.3-110.5 83.4-141.5 48.3-30.6 106.5-32.5 149.2 8 6.4 6 12.3 12.8 17.5 20.3 5.2-2.6 10.6-4.5 16.1-5.7 2.8-2.8 9.6.2 16.4 3.2 6 2.7 11.9 5.4 14.9 3.9 7.1-3.5 28.3-27.5 35.9-27.9 33.2-24.5 78.4-20.9 118-1.7 51.8 25.1 87.2 79 83.2 141.2-2.3 34.8-15.6 66.1-34.7 89.1 0 .2-75.3 84.5-105.8 119.6-24.7 28.5-110 123.8-126.9 143.2-26.2-30.2-232.4-263-232.4-263"/></defs><clipPath id="SVGID_36_"><use xlink:href="#SVGID_35_" style="overflow:visible"/></clipPath><g id="g6032" style="clip-path:url(#SVGID_36_)"><g id="g6038"><g id="g6040"><linearGradient id="path6052_1_" gradientUnits="userSpaceOnUse" x1="541.78" y1="2616.24" x2="553.682" y2="2616.24" gradientTransform="scale(-17.2836 17.2836) rotate(45.628 3298.947 764.326)"><stop offset="0" style="stop-color:#fab60a"/><stop offset=".294" style="stop-color:#fee303"/><stop offset=".761" style="stop-color:#fcd305"/><stop offset="1" style="stop-color:#f78d11"/></linearGradient><path id="path6052" d="M-889.4 1452.1c-19.1-23.1-32.6-54.1-34.8-88.7-4-61.6 34.3-110.5 83.4-141.5 48.3-30.6 106.5-32.5 149.2 8 6.4 6 12.3 12.8 17.5 20.3 5.2-2.6 10.6-4.5 16.1-5.7 2.8-2.8 9.6.2 16.4 3.2 6 2.7 11.9 5.4 14.9 3.9 7.1-3.5 28.3-27.5 35.9-27.9 33.2-24.5 78.4-20.9 118-1.7 51.8 25.1 87.2 79 83.2 141.2-2.3 34.8-15.6 66.1-34.7 89.1 0 .2-75.3 84.5-105.8 119.6-24.7 28.5-110 123.8-126.9 143.2-26.2-30.2-232.4-263-232.4-263" style="fill:url(#path6052_1_)"/></g></g></g></g><g transform="matrix(-.35278 0 0 .35278 399.702 -165.07)" id="g6054"><defs><path id="SVGID_37_" d="M-883.3 1452.6c-19.8-23.9-33.1-56-34.7-91.3-3-65.3 38.9-114.8 91.4-140.8 43.6-21.6 96.1-21.8 134.3 14.1 5.7 5.4 11 11.4 15.8 18 4.7-1 9.5-1.3 14.3-1.1 2.1-2.1 8.6 2.3 15 6.6 5.9 4 11.8 8.1 14.1 6.9 5.4-2.6 26.9-29.7 32.6-30 30.4-28 75.2-28.5 114.3-14.6 54.8 19.6 94.4 74.9 91.3 140.6-1.7 35.6-14.7 67.8-34.7 91.7 0 .2-67.6 76.2-103.2 117.2-28.7 33.2-104 117.6-123.8 140.5-30.4-35.3-226.7-257.8-226.7-257.8"/></defs><clipPath id="SVGID_38_"><use xlink:href="#SVGID_37_" style="overflow:visible"/></clipPath><g id="g6056" style="clip-path:url(#SVGID_38_)"><g id="g6062"><g id="g6064"><linearGradient id="path6076_1_" gradientUnits="userSpaceOnUse" x1="540.762" y1="2617.325" x2="552.664" y2="2617.325" gradientTransform="scale(-17.5869 17.5869) rotate(45.18 3334.504 757.403)"><stop offset="0" style="stop-color:#f9ac0c"/><stop offset=".294" style="stop-color:#fee502"/><stop offset=".761" style="stop-color:#fddb04"/><stop offset="1" style="stop-color:#f78d11"/></linearGradient><path id="path6076" d="M-883.3 1452.6c-19.8-23.9-33.1-56-34.7-91.3-3-65.3 38.9-114.8 91.4-140.8 43.6-21.6 96.1-21.8 134.3 14.1 5.7 5.4 11 11.4 15.8 18 4.7-1 9.5-1.3 14.3-1.1 2.1-2.1 8.6 2.3 15 6.6 5.9 4 11.8 8.1 14.1 6.9 5.4-2.6 26.9-29.7 32.6-30 30.4-28 75.2-28.5 114.3-14.6 54.8 19.6 94.4 74.9 91.3 140.6-1.7 35.6-14.7 67.8-34.7 91.7 0 .2-67.6 76.2-103.2 117.2-28.7 33.2-104 117.6-123.8 140.5-30.4-35.3-226.7-257.8-226.7-257.8" style="fill:url(#path6076_1_)"/></g></g></g></g><g transform="matrix(-.35278 0 0 .35278 399.702 -165.07)" id="g6078"><defs><path id="SVGID_39_" d="M-877.2 1453c-20.6-24.6-33.5-57.9-34.6-93.9-2.1-69.1 43.2-120.4 99.4-140.1 38.5-13.5 85.7-11 119.4 20.2 5.1 4.8 9.8 10 14.1 15.7 4.3.7 8.4 1.9 12.4 3.6 1.4-1.4 7.6 4.3 13.7 9.9 5.9 5.4 11.7 10.9 13.3 10.1 3.6-1.8 25.5-32 29.3-32.2 27.5-31.6 72-36.4 110.7-27.4 57.9 13.6 101.4 70.6 99.4 140-1.1 36.4-13.9 69.7-34.8 94.3 0 .2-59.9 67.9-100.5 114.7-32.8 38-98.1 111.5-120.7 137.6-34.8-40.1-221.1-252.5-221.1-252.5"/></defs><clipPath id="SVGID_40_"><use xlink:href="#SVGID_39_" style="overflow:visible"/></clipPath><g id="g6080" style="clip-path:url(#SVGID_40_)"><g id="g6086"><g id="g6088"><linearGradient id="path6100_1_" gradientUnits="userSpaceOnUse" x1="539.777" y1="2618.345" x2="551.679" y2="2618.345" gradientTransform="scale(-17.8906 17.8906) rotate(44.733 3370.683 750.373)"><stop offset="0" style="stop-color:#f8a10e"/><stop offset=".294" style="stop-color:#fee802"/><stop offset=".761" style="stop-color:#fee303"/><stop offset="1" style="stop-color:#f78d11"/></linearGradient><path id="path6100" d="M-877.2 1453c-20.6-24.6-33.5-57.9-34.6-93.9-2.1-69.1 43.2-120.4 99.4-140.1 38.5-13.5 85.7-11 119.4 20.2 5.1 4.8 9.8 10 14.1 15.7 4.3.7 8.4 1.9 12.4 3.6 1.4-1.4 7.6 4.3 13.7 9.9 5.9 5.4 11.7 10.9 13.3 10.1 3.6-1.8 25.5-32 29.3-32.2 27.5-31.6 72-36.4 110.7-27.4 57.9 13.6 101.4 70.6 99.4 140-1.1 36.4-13.9 69.7-34.8 94.3 0 .2-59.9 67.9-100.5 114.7-32.8 38-98.1 111.5-120.7 137.6-34.8-40.1-221.1-252.5-221.1-252.5" style="fill:url(#path6100_1_)"/></g></g></g></g><g transform="matrix(-.35278 0 0 .35278 399.702 -165.07)" id="g6102"><defs><path id="SVGID_41_" d="M-871 1453.6c-21.4-25.4-34.1-59.8-34.6-96.6-1.1-72.7 47.2-127.9 107.5-139.4 33.5-6.3 75.1-.3 104.4 26.3 4.5 4.1 8.7 8.6 12.4 13.5 3.8 2.3 7.3 5.1 10.6 8.2.7-.7 6.6 6.3 12.4 13.2 5.8 6.8 11.6 13.7 12.4 13.3 1.8-.9 24-34.2 25.9-34.3 24.8-35.2 68.7-44.6 107-40.2 60.9 7.1 108.5 66.5 107.5 139.3-.5 37.1-13.1 71.5-34.8 96.9 0 .3-52.1 59.6-97.8 112.3-37 42.7-92.2 105.5-117.7 134.8-39-45.3-215.2-247.3-215.2-247.3"/></defs><clipPath id="SVGID_42_"><use xlink:href="#SVGID_41_" style="overflow:visible"/></clipPath><g id="g6104" style="clip-path:url(#SVGID_42_)"><g id="g6110"><g id="g6112"><linearGradient id="path6124_1_" gradientUnits="userSpaceOnUse" x1="538.843" y1="2619.294" x2="550.745" y2="2619.294" gradientTransform="scale(-18.1883 18.1883) rotate(44.285 3407.48 743.246)"><stop offset="0" style="stop-color:#f7970f"/><stop offset=".294" style="stop-color:#feea01"/><stop offset=".761" style="stop-color:#feea01"/><stop offset="1" style="stop-color:#f78d11"/></linearGradient><path id="path6124" d="M-871 1453.6c-21.4-25.4-34.1-59.8-34.6-96.6-1.1-72.7 47.2-127.9 107.5-139.4 33.5-6.3 75.1-.3 104.4 26.3 4.5 4.1 8.7 8.6 12.4 13.5 3.8 2.3 7.3 5.1 10.6 8.2.7-.7 6.6 6.3 12.4 13.2 5.8 6.8 11.6 13.7 12.4 13.3 1.8-.9 24-34.2 25.9-34.3 24.8-35.2 68.7-44.6 107-40.2 60.9 7.1 108.5 66.5 107.5 139.3-.5 37.1-13.1 71.5-34.8 96.9 0 .3-52.1 59.6-97.8 112.3-37 42.7-92.2 105.5-117.7 134.8-39-45.3-215.2-247.3-215.2-247.3" style="fill:url(#path6124_1_)"/></g></g></g></g><g transform="matrix(-.35278 0 0 .35278 399.702 -165.07)" id="g6126"><defs><path id="SVGID_43_" d="M-864.8 1454.1c-22.1-26.2-34.5-61.6-34.5-99.3 0-76.4 51.9-138.7 115.5-138.7 38.5 0 87.3 17.9 109 56.4l22.7 33 22.6-36.5c21.9-38.7 65.1-52.9 103.3-52.9 63.6 0 115.6 62.2 115.6 138.7 0 38-12.3 73.3-34.8 99.5 0 .3-44.4 51.3-95.2 109.8-41.1 47.5-86.3 99.4-114.6 132-43.5-50.3-209.6-242-209.6-242"/></defs><clipPath id="SVGID_44_"><use xlink:href="#SVGID_43_" style="overflow:visible"/></clipPath><g id="g6128" style="clip-path:url(#SVGID_44_)"><g id="g6134"><g id="g6136"><linearGradient id="path6148_1_" gradientUnits="userSpaceOnUse" x1="454.229" y1="2686.613" x2="466.131" y2="2686.613" gradientTransform="scale(18.4737 -18.4737) rotate(43.837 3634.751 711.498)"><stop offset="0" style="stop-color:#f78d11"/><stop offset=".294" style="stop-color:#ffed01"/><stop offset=".761" style="stop-color:#fff200"/><stop offset="1" style="stop-color:#f78d11"/></linearGradient><path id="path6148" d="M-864.8 1454.1c-22.1-26.2-34.5-61.6-34.5-99.3 0-76.4 51.9-138.7 115.5-138.7 38.5 0 87.3 17.9 109 56.4l22.7 33 22.6-36.5c21.9-38.7 65.1-52.9 103.3-52.9 63.6 0 115.6 62.2 115.6 138.7 0 38-12.3 73.3-34.8 99.5 0 .3-44.4 51.3-95.2 109.8-41.1 47.5-86.3 99.4-114.6 132-43.5-50.3-209.6-242-209.6-242" style="fill:url(#path6148_1_)"/></g></g></g></g><g transform="matrix(-.35278 0 0 .35278 399.702 -165.07)" id="g6150"><defs><path id="SVGID_45_" d="M-147.6 1449.1c-33.8-42.9-66.8-118.6 0-218.6 63.2-94.6 169.6-97 238.8-28.6 10.1 9.9 19.3 21.2 27.4 34 8.2-12.6 17.3-23.7 27.1-33.4 69.3-68.5 174.3-65.2 240.1 28.1 65.8 93.7 33.7 175.5 0 218.6l-267.2 294.5-266.2-294.6z"/></defs><clipPath id="SVGID_46_"><use xlink:href="#SVGID_45_" style="overflow:visible"/></clipPath><g id="g6152" style="clip-path:url(#SVGID_46_)"><g id="g6158"><g id="g6160"><linearGradient id="path6168_1_" gradientUnits="userSpaceOnUse" x1="485.747" y1="2663.755" x2="497.649" y2="2663.755" gradientTransform="scale(15.954 -15.954) rotate(48.316 3301.8 774.004)"><stop offset="0" style="stop-color:#fff200"/><stop offset="1" style="stop-color:#f78d11"/></linearGradient><path id="path6168" d="M-147.6 1449.1c-33.8-42.9-66.8-118.6 0-218.6 63.2-94.6 169.6-97 238.8-28.6 10.1 9.9 19.3 21.2 27.4 34 8.2-12.6 17.3-23.7 27.1-33.4 69.3-68.5 174.3-65.2 240.1 28.1 65.8 93.7 33.7 175.5 0 218.6l-267.2 294.5-266.2-294.6z" style="fill:url(#path6168_1_)"/></g></g></g></g><g transform="matrix(-.35278 0 0 .35278 399.702 -165.07)" id="g6170"><defs><path id="SVGID_47_" d="M-141.5 1449.7c-15.3-19.3-29.6-44.8-35.2-75.4-7.9-43.3 4.1-92.6 43.3-145.2 62.2-83.4 159-86.2 223.9-22.5 9.4 9.2 18.2 19.8 25.7 31.7 7.7-10.9 16.1-20.5 25.3-28.8 12.2-12.1 27.9-18.4 42.1-25.3 16.1-7.9 35.3-16.2 52.5-17.3 47.3-6.7 97.3 13.9 136.4 62.3 39.7 49.3 50.7 100 42.7 144.5-5.6 30.9-19.6 57-34.6 76.1 0 0-114.1 125.9-119.2 131.8-4.1 4.8-139.4 154.1-142.3 157.4-4.3-5.2-260.6-289.3-260.6-289.3"/></defs><clipPath id="SVGID_48_"><use xlink:href="#SVGID_47_" style="overflow:visible"/></clipPath><g id="g6172" style="clip-path:url(#SVGID_48_)"><g id="g6178"><g id="g6180"><linearGradient id="path6192_1_" gradientUnits="userSpaceOnUse" x1="516.314" y1="2643.49" x2="528.216" y2="2643.49" gradientTransform="scale(-16.1837 16.1837) rotate(47.868 3130.388 792.48)"><stop offset="0" style="stop-color:#fee802"/><stop offset=".294" style="stop-color:#fdd705"/><stop offset=".761" style="stop-color:#f9ad0c"/><stop offset="1" style="stop-color:#f78d11"/></linearGradient><path id="path6192" d="M-141.5 1449.7c-15.3-19.3-29.6-44.8-35.2-75.4-7.9-43.3 4.1-92.6 43.3-145.2 62.2-83.4 159-86.2 223.9-22.5 9.4 9.2 18.2 19.8 25.7 31.7 7.7-10.9 16.1-20.5 25.3-28.8 12.2-12.1 27.9-18.4 42.1-25.3 16.1-7.9 35.3-16.2 52.5-17.3 47.3-6.7 97.3 13.9 136.4 62.3 39.7 49.3 50.7 100 42.7 144.5-5.6 30.9-19.6 57-34.6 76.1 0 0-114.1 125.9-119.2 131.8-4.1 4.8-139.4 154.1-142.3 157.4-4.3-5.2-260.6-289.3-260.6-289.3" style="fill:url(#path6192_1_)"/></g></g></g></g><g transform="matrix(-.35278 0 0 .35278 399.702 -165.07)" id="g6194"><defs><path id="SVGID_49_" d="M-135.4 1450.1c-16-20-30.3-46.6-35.1-78-7.2-46.9 10.8-96.3 51.3-144.4 60.8-72.2 148.6-75.5 209-16.4 8.8 8.6 17 18.4 24.1 29.4 7.2-9.3 15-17.3 23.4-24.2 10.8-10.7 27.3-12.7 39.9-18.9 14.3-7 33.9-18.5 49.2-19.4 44.4-10.3 93 7.1 132.7 49.5 41.7 44.5 58.2 95.8 50.8 143.8-4.8 31.7-18.7 58.8-34.6 78.7 0 0-106.3 117.6-116.5 129.3-8.2 9.5-133.6 148-139.2 154.6-8.7-10.1-255-284-255-284"/></defs><clipPath id="SVGID_50_"><use xlink:href="#SVGID_49_" style="overflow:visible"/></clipPath><g id="g6196" style="clip-path:url(#SVGID_50_)"><g id="g6202"><g id="g6204"><linearGradient id="path6216_1_" gradientUnits="userSpaceOnUse" x1="515.599" y1="2644.023" x2="527.501" y2="2644.023" gradientTransform="scale(-16.402 16.402) rotate(47.42 3162.583 786.143)"><stop offset="0" style="stop-color:#fdde03"/><stop offset=".294" style="stop-color:#fdd904"/><stop offset=".761" style="stop-color:#fab50a"/><stop offset="1" style="stop-color:#f78d11"/></linearGradient><path id="path6216" d="M-135.4 1450.1c-16-20-30.3-46.6-35.1-78-7.2-46.9 10.8-96.3 51.3-144.4 60.8-72.2 148.6-75.5 209-16.4 8.8 8.6 17 18.4 24.1 29.4 7.2-9.3 15-17.3 23.4-24.2 10.8-10.7 27.3-12.7 39.9-18.9 14.3-7 33.9-18.5 49.2-19.4 44.4-10.3 93 7.1 132.7 49.5 41.7 44.5 58.2 95.8 50.8 143.8-4.8 31.7-18.7 58.8-34.6 78.7 0 0-106.3 117.6-116.5 129.3-8.2 9.5-133.6 148-139.2 154.6-8.7-10.1-255-284-255-284" style="fill:url(#path6216_1_)"/></g></g></g></g><g transform="matrix(-.35278 0 0 .35278 399.702 -165.07)" id="g6218"><defs><path id="SVGID_51_" d="M-129.3 1450.6c-16.8-20.7-30.9-48.4-35-80.6-6.5-50.6 17.3-99.9 59.3-143.7 58.7-61.2 138.1-64.7 194-10.4 8.2 8 15.8 17 22.4 27.2 6.7-7.6 13.9-14.1 21.6-19.6 9.5-9.3 26.8-6.9 37.8-12.4 12.5-6.2 32.5-20.7 45.9-21.5 41.6-13.8 89 .3 129 36.6 43.9 39.9 65.5 91.6 58.9 143.2-4.2 32.4-17.9 60.6-34.7 81.2 0 .1-98.6 109.4-113.8 127-12.4 14.2-127.7 142-136.2 151.7-12.9-15-249.2-278.7-249.2-278.7"/></defs><clipPath id="SVGID_52_"><use xlink:href="#SVGID_51_" style="overflow:visible"/></clipPath><g id="g6220" style="clip-path:url(#SVGID_52_)"><g id="g6226"><g id="g6228"><linearGradient id="path6240_1_" gradientUnits="userSpaceOnUse" x1="514.901" y1="2644.522" x2="526.803" y2="2644.522" gradientTransform="scale(-16.6228 16.6228) rotate(46.972 3195.325 779.708)"><stop offset="0" style="stop-color:#fcd405"/><stop offset=".294" style="stop-color:#fddc04"/><stop offset=".761" style="stop-color:#fabc09"/><stop offset="1" style="stop-color:#f78d11"/></linearGradient><path id="path6240" d="M-129.3 1450.6c-16.8-20.7-30.9-48.4-35-80.6-6.5-50.6 17.3-99.9 59.3-143.7 58.7-61.2 138.1-64.7 194-10.4 8.2 8 15.8 17 22.4 27.2 6.7-7.6 13.9-14.1 21.6-19.6 9.5-9.3 26.8-6.9 37.8-12.4 12.5-6.2 32.5-20.7 45.9-21.5 41.6-13.8 89 .3 129 36.6 43.9 39.9 65.5 91.6 58.9 143.2-4.2 32.4-17.9 60.6-34.7 81.2 0 .1-98.6 109.4-113.8 127-12.4 14.2-127.7 142-136.2 151.7-12.9-15-249.2-278.7-249.2-278.7" style="fill:url(#path6240_1_)"/></g></g></g></g><g transform="matrix(-.35278 0 0 .35278 399.702 -165.07)" id="g6242"><defs><path id="SVGID_53_" d="M-123.1 1451.1c-17.5-21.5-31.5-50.3-35-83.3-5.7-54.3 23.4-103.3 67.4-143 55.9-50.5 127.6-54 179-4.2 7.6 7.3 14.6 15.6 20.8 24.9 6.2-5.9 12.8-10.9 19.8-14.9 4.6-4.6 12.3-4.4 19.9-4.2 5.8.2 11.6.3 15.8-1.7 10.6-5.3 31.1-22.9 42.5-23.6 38.8-17.4 85.3-6.6 125.4 23.8 46.3 35.1 72.8 87.5 67 142.6-3.5 33.2-17.1 62.4-34.6 83.9 0 .1-90.9 101.1-111.2 124.5-16.5 19-121.8 135.9-133.1 148.9-17.4-20.3-243.7-273.7-243.7-273.7"/></defs><clipPath id="SVGID_54_"><use xlink:href="#SVGID_53_" style="overflow:visible"/></clipPath><g id="g6244" style="clip-path:url(#SVGID_54_)"><g id="g6250"><g id="g6252"><linearGradient id="path6264_1_" gradientUnits="userSpaceOnUse" x1="514.189" y1="2644.985" x2="526.091" y2="2644.985" gradientTransform="scale(-16.8637 16.8637) rotate(46.524 3228.78 773.178)"><stop offset="0" style="stop-color:#fcca07"/><stop offset=".294" style="stop-color:#fdde03"/><stop offset=".761" style="stop-color:#fbc408"/><stop offset="1" style="stop-color:#f78d11"/></linearGradient><path id="path6264" d="M-123.1 1451.1c-17.5-21.5-31.5-50.3-35-83.3-5.7-54.3 23.4-103.3 67.4-143 55.9-50.5 127.6-54 179-4.2 7.6 7.3 14.6 15.6 20.8 24.9 6.2-5.9 12.8-10.9 19.8-14.9 4.6-4.6 12.3-4.4 19.9-4.2 5.8.2 11.6.3 15.8-1.7 10.6-5.3 31.1-22.9 42.5-23.6 38.8-17.4 85.3-6.6 125.4 23.8 46.3 35.1 72.8 87.5 67 142.6-3.5 33.2-17.1 62.4-34.6 83.9 0 .1-90.9 101.1-111.2 124.5-16.5 19-121.8 135.9-133.1 148.9-17.4-20.3-243.7-273.7-243.7-273.7" style="fill:url(#path6264_1_)"/></g></g></g></g><g transform="matrix(-.35278 0 0 .35278 399.702 -165.07)" id="g6266"><defs><path id="SVGID_55_" d="M-117 1451.6c-18.3-22.3-32.1-52.3-34.9-86-4.9-58 29-106.7 75.4-142.3 52.5-40.2 117.1-43.3 164.1 1.9 6.9 6.6 13.4 14.2 19.1 22.6 5.7-4.3 11.7-7.7 17.9-10.3 3.6-3.6 10.9-2 17.9-.4 6 1.3 11.9 2.7 15.5.9 8.9-4.4 29.7-25.2 39.3-25.8 36-20.9 81.7-13.6 121.7 11.1 49 30.2 80.1 83.2 75.1 141.9-2.9 34-16.3 64.2-34.7 86.5 0 .1-83.1 92.8-108.5 122-20.5 23.7-115.9 129.8-130 146.1-21.6-25.1-237.9-268.2-237.9-268.2"/></defs><clipPath id="SVGID_56_"><use xlink:href="#SVGID_55_" style="overflow:visible"/></clipPath><g id="g6268" style="clip-path:url(#SVGID_56_)"><g id="g6274"><g id="g6276"><linearGradient id="path6288_1_" gradientUnits="userSpaceOnUse" x1="513.474" y1="2645.404" x2="525.376" y2="2645.404" gradientTransform="scale(-17.1199 17.1199) rotate(46.076 3262.88 766.52)"><stop offset="0" style="stop-color:#fbc008"/><stop offset=".294" style="stop-color:#fee003"/><stop offset=".761" style="stop-color:#fccc06"/><stop offset="1" style="stop-color:#f78d11"/></linearGradient><path id="path6288" d="M-117 1451.6c-18.3-22.3-32.1-52.3-34.9-86-4.9-58 29-106.7 75.4-142.3 52.5-40.2 117.1-43.3 164.1 1.9 6.9 6.6 13.4 14.2 19.1 22.6 5.7-4.3 11.7-7.7 17.9-10.3 3.6-3.6 10.9-2 17.9-.4 6 1.3 11.9 2.7 15.5.9 8.9-4.4 29.7-25.2 39.3-25.8 36-20.9 81.7-13.6 121.7 11.1 49 30.2 80.1 83.2 75.1 141.9-2.9 34-16.3 64.2-34.7 86.5 0 .1-83.1 92.8-108.5 122-20.5 23.7-115.9 129.8-130 146.1-21.6-25.1-237.9-268.2-237.9-268.2" style="fill:url(#path6288_1_)"/></g></g></g></g><g transform="matrix(-.35278 0 0 .35278 399.702 -165.07)" id="g6290"><defs><path id="SVGID_57_" d="M-110.8 1452.1c-19.1-23.1-32.5-54.1-34.8-88.7-3.9-61.6 34.2-110.5 83.4-141.5 48.3-30.5 106.6-32.6 149.2 7.9 6.3 6 12.2 12.8 17.4 20.4 5.2-2.7 10.6-4.6 16.1-5.7 2.8-2.8 9.7.2 16.4 3.2 6 2.7 11.9 5.4 14.9 3.9 7.1-3.5 28.3-27.5 35.9-27.9 33.2-24.5 78.3-21 118-1.7 51.8 25 87.2 79 83.2 141.2-2.3 34.8-15.5 66.1-34.7 89.1 0 .2-75.4 84.5-105.9 119.6-24.6 28.5-109.9 123.8-126.9 143.2-26-30.2-232.2-263-232.2-263"/></defs><clipPath id="SVGID_58_"><use xlink:href="#SVGID_57_" style="overflow:visible"/></clipPath><g id="g6292" style="clip-path:url(#SVGID_58_)"><g id="g6298"><g id="g6300"><linearGradient id="path6312_1_" gradientUnits="userSpaceOnUse" x1="512.76" y1="2645.783" x2="524.662" y2="2645.783" gradientTransform="scale(-17.3894 17.3894) rotate(45.628 3297.677 759.766)"><stop offset="0" style="stop-color:#fab60a"/><stop offset=".294" style="stop-color:#fee303"/><stop offset=".761" style="stop-color:#fcd305"/><stop offset="1" style="stop-color:#f78d11"/></linearGradient><path id="path6312" d="M-110.8 1452.1c-19.1-23.1-32.5-54.1-34.8-88.7-3.9-61.6 34.2-110.5 83.4-141.5 48.3-30.5 106.6-32.6 149.2 7.9 6.3 6 12.2 12.8 17.4 20.4 5.2-2.7 10.6-4.6 16.1-5.7 2.8-2.8 9.7.2 16.4 3.2 6 2.7 11.9 5.4 14.9 3.9 7.1-3.5 28.3-27.5 35.9-27.9 33.2-24.5 78.3-21 118-1.7 51.8 25 87.2 79 83.2 141.2-2.3 34.8-15.5 66.1-34.7 89.1 0 .2-75.4 84.5-105.9 119.6-24.6 28.5-109.9 123.8-126.9 143.2-26-30.2-232.2-263-232.2-263" style="fill:url(#path6312_1_)"/></g></g></g></g><g transform="matrix(-.35278 0 0 .35278 399.702 -165.07)" id="g6314"><defs><path id="SVGID_59_" d="M-104.7 1452.6c-19.8-23.9-33.1-56-34.7-91.3-3-65.3 39-114.8 91.5-140.8 43.6-21.6 96-21.7 134.2 14.1 5.7 5.4 11.1 11.4 15.8 18.1 4.8-1 9.5-1.4 14.3-1.1 2.1-2.1 8.6 2.3 15 6.6 6 4 11.9 8.1 14.2 6.9 5.4-2.6 26.9-29.7 32.6-30 30.4-28 75.1-28.6 114.3-14.6 54.9 19.6 94.4 74.9 91.3 140.6-1.7 35.6-14.7 67.8-34.8 91.7 0 .2-67.7 76.2-103.1 117.2-28.8 33.2-104 117.6-123.8 140.5-30.6-35.4-226.8-257.9-226.8-257.9"/></defs><clipPath id="SVGID_60_"><use xlink:href="#SVGID_59_" style="overflow:visible"/></clipPath><g id="g6316" style="clip-path:url(#SVGID_60_)"><g id="g6322"><g id="g6324"><linearGradient id="path6336_1_" gradientUnits="userSpaceOnUse" x1="512.062" y1="2646.123" x2="523.964" y2="2646.123" gradientTransform="scale(-17.665 17.665) rotate(45.18 3333.092 752.892)"><stop offset="0" style="stop-color:#f9ac0c"/><stop offset=".294" style="stop-color:#fee502"/><stop offset=".761" style="stop-color:#fddb04"/><stop offset="1" style="stop-color:#f78d11"/></linearGradient><path id="path6336" d="M-104.7 1452.6c-19.8-23.9-33.1-56-34.7-91.3-3-65.3 39-114.8 91.5-140.8 43.6-21.6 96-21.7 134.2 14.1 5.7 5.4 11.1 11.4 15.8 18.1 4.8-1 9.5-1.4 14.3-1.1 2.1-2.1 8.6 2.3 15 6.6 6 4 11.9 8.1 14.2 6.9 5.4-2.6 26.9-29.7 32.6-30 30.4-28 75.1-28.6 114.3-14.6 54.9 19.6 94.4 74.9 91.3 140.6-1.7 35.6-14.7 67.8-34.8 91.7 0 .2-67.7 76.2-103.1 117.2-28.8 33.2-104 117.6-123.8 140.5-30.6-35.4-226.8-257.9-226.8-257.9" style="fill:url(#path6336_1_)"/></g></g></g></g><g transform="matrix(-.35278 0 0 .35278 399.702 -165.07)" id="g6338"><defs><path id="SVGID_61_" d="M-98.6 1453c-20.6-24.6-33.5-57.9-34.6-93.9-2.1-69 43.2-120.3 99.5-140.1 38.4-13.5 85.6-11 119.3 20.2 5.1 4.8 9.8 10 14.1 15.8 4.3.6 8.4 1.9 12.4 3.5 1.4-1.4 7.6 4.3 13.7 9.9 5.9 5.4 11.7 10.9 13.3 10.1 3.6-1.8 25.5-32 29.3-32.2 27.5-31.6 71.8-36.4 110.7-27.4 58 13.6 101.5 70.6 99.4 140-1.1 36.4-13.9 69.7-34.8 94.3 0 .2-59.9 67.9-100.5 114.7-32.9 38-98 111.5-120.7 137.6C87.6 1665.4-98.6 1453-98.6 1453"/></defs><clipPath id="SVGID_62_"><use xlink:href="#SVGID_61_" style="overflow:visible"/></clipPath><g id="g6340" style="clip-path:url(#SVGID_62_)"><g id="g6346"><g id="g6348"><linearGradient id="path6360_1_" gradientUnits="userSpaceOnUse" x1="511.384" y1="2646.422" x2="523.286" y2="2646.422" gradientTransform="scale(-17.9424 17.9424) rotate(44.732 3369.133 745.904)"><stop offset="0" style="stop-color:#f8a10e"/><stop offset=".294" style="stop-color:#fee802"/><stop offset=".761" style="stop-color:#fee303"/><stop offset="1" style="stop-color:#f78d11"/></linearGradient><path id="path6360" d="M-98.6 1453c-20.6-24.6-33.5-57.9-34.6-93.9-2.1-69 43.2-120.3 99.5-140.1 38.4-13.5 85.6-11 119.3 20.2 5.1 4.8 9.8 10 14.1 15.8 4.3.6 8.4 1.9 12.4 3.5 1.4-1.4 7.6 4.3 13.7 9.9 5.9 5.4 11.7 10.9 13.3 10.1 3.6-1.8 25.5-32 29.3-32.2 27.5-31.6 71.8-36.4 110.7-27.4 58 13.6 101.5 70.6 99.4 140-1.1 36.4-13.9 69.7-34.8 94.3 0 .2-59.9 67.9-100.5 114.7-32.9 38-98 111.5-120.7 137.6C87.6 1665.4-98.6 1453-98.6 1453" style="fill:url(#path6360_1_)"/></g></g></g></g><g transform="matrix(-.35278 0 0 .35278 399.702 -165.07)" id="g6362"><defs><path id="SVGID_63_" d="M-92.4 1453.6c-21.4-25.4-34-59.8-34.5-96.6-1.1-72.7 47.2-127.9 107.6-139.4 33.4-6.3 75-.2 104.3 26.3 4.5 4.1 8.7 8.6 12.4 13.5 3.8 2.3 7.3 5.1 10.6 8.2.7-.7 6.6 6.3 12.5 13.2 5.8 6.8 11.6 13.7 12.4 13.3 1.8-.9 24.1-34.2 26-34.3 24.7-35.2 68.5-44.6 107-40.2 60.9 7.1 108.6 66.5 107.5 139.3-.6 37.1-13.1 71.5-34.8 96.9 0 .3-52.2 59.6-97.8 112.3-37 42.7-92.2 105.5-117.6 134.8-39.4-45.3-215.6-247.3-215.6-247.3"/></defs><clipPath id="SVGID_64_"><use xlink:href="#SVGID_63_" style="overflow:visible"/></clipPath><g id="g6364" style="clip-path:url(#SVGID_64_)"><g id="g6370"><g id="g6372"><linearGradient id="path6384_1_" gradientUnits="userSpaceOnUse" x1="510.736" y1="2646.682" x2="522.638" y2="2646.682" gradientTransform="scale(-18.2142 18.2142) rotate(44.284 3405.831 738.818)"><stop offset="0" style="stop-color:#f7970f"/><stop offset=".294" style="stop-color:#feea01"/><stop offset=".761" style="stop-color:#feea01"/><stop offset="1" style="stop-color:#f78d11"/></linearGradient><path id="path6384" d="M-92.4 1453.6c-21.4-25.4-34-59.8-34.5-96.6-1.1-72.7 47.2-127.9 107.6-139.4 33.4-6.3 75-.2 104.3 26.3 4.5 4.1 8.7 8.6 12.4 13.5 3.8 2.3 7.3 5.1 10.6 8.2.7-.7 6.6 6.3 12.5 13.2 5.8 6.8 11.6 13.7 12.4 13.3 1.8-.9 24.1-34.2 26-34.3 24.7-35.2 68.5-44.6 107-40.2 60.9 7.1 108.6 66.5 107.5 139.3-.6 37.1-13.1 71.5-34.8 96.9 0 .3-52.2 59.6-97.8 112.3-37 42.7-92.2 105.5-117.6 134.8-39.4-45.3-215.6-247.3-215.6-247.3" style="fill:url(#path6384_1_)"/></g></g></g></g><g transform="matrix(-.35278 0 0 .35278 399.702 -165.07)" id="g6386"><defs><path id="SVGID_65_" d="M-86.3 1454.1c-22.1-26.2-34.5-61.6-34.5-99.3 0-76.4 51.9-138.7 115.6-138.7 38.4 0 87.2 17.9 108.8 56.4l22.7 33L149 1269c21.9-38.7 65-52.9 103.3-52.9 63.7 0 115.6 62.2 115.6 138.7 0 38-12.3 73.3-34.8 99.5 0 .3-44.5 51.3-95.2 109.8-41.2 47.5-86.2 99.4-114.5 132-43.5-50.3-209.7-242-209.7-242"/></defs><clipPath id="SVGID_66_"><use xlink:href="#SVGID_65_" style="overflow:visible"/></clipPath><g id="g6388" style="clip-path:url(#SVGID_66_)"><g id="g6394"><g id="g6396"><linearGradient id="path6408_1_" gradientUnits="userSpaceOnUse" x1="482.078" y1="2659.874" x2="493.98" y2="2659.874" gradientTransform="scale(18.4742 -18.4742) rotate(43.837 3636.542 715.91)"><stop offset="0" style="stop-color:#f78d11"/><stop offset=".294" style="stop-color:#ffed01"/><stop offset=".761" style="stop-color:#fff200"/><stop offset="1" style="stop-color:#f78d11"/></linearGradient><path id="path6408" d="M-86.3 1454.1c-22.1-26.2-34.5-61.6-34.5-99.3 0-76.4 51.9-138.7 115.6-138.7 38.4 0 87.2 17.9 108.8 56.4l22.7 33L149 1269c21.9-38.7 65-52.9 103.3-52.9 63.7 0 115.6 62.2 115.6 138.7 0 38-12.3 73.3-34.8 99.5 0 .3-44.5 51.3-95.2 109.8-41.2 47.5-86.2 99.4-114.5 132-43.5-50.3-209.7-242-209.7-242" style="fill:url(#path6408_1_)"/></g></g></g></g></svg>